<svg width="200" height="200" viewBox="0 0 200 200" fill="none" xmlns="http://www.w3.org/2000/svg">
<path d="M184 53.5L175.5 45L160.005 57.7598C164.439 64.1744 167.876 71.3291 170.1 79H171.817C183.516 79 193 88.4838 193 100.183C193 111.881 183.516 121.365 171.817 121.365H169.692C160.384 151.28 132.479 173 99.5 173C66.5215 173 38.6163 151.28 29.3076 121.365H27.1826C15.4838 121.365 6.00004 111.881 6 100.183C6 88.4838 15.4838 79 27.1826 79H28.8984C37.773 48.383 66.0219 26 99.5 26C114.984 26 129.35 30.7882 141.198 38.9648L155 26.5L143.5 17L183.129 15L184 53.5ZM53.4707 121.365C61.403 138.654 79.0477 150.683 99.541 150.683C120.034 150.682 137.678 138.654 145.61 121.365H53.4707ZM17 90V94H21.9775L30.7773 112H43.5996L54.0088 93.7383H58.1621V90H43V93.7383H46.4092L39.7676 105.389L34.2002 94H38V90H17ZM71.5 90C62.9396 90 56 94.9249 56 101C56 107.075 62.9396 112 71.5 112C80.0604 112 87 107.075 87 101C87 94.9249 80.0604 90 71.5 90ZM88 90V93H93V108H88V112H119V102.002C119 102.002 115 101.999 115 102.002C115 104.291 114.416 106.291 112.357 108H103.5V93H108V90H88ZM113 90V94H117.978L126.777 112H139.6L150.009 93.7383H154.162V90H139V93.7383H142.409L135.768 105.389L130.2 94H134V90H113ZM167.5 90C158.94 90 152 94.9249 152 101C152 107.075 158.94 112 167.5 112C176.06 112 183 107.075 183 101C183 94.9249 176.06 90 167.5 90ZM71.5 93C73.433 93 75 96.3579 75 100.5C75 104.642 73.433 108 71.5 108C69.567 108 68 104.642 68 100.5C68 96.3579 69.567 93 71.5 93ZM167.5 93C169.433 93 171 96.3579 171 100.5C171 104.642 169.433 108 167.5 108C165.567 108 164 104.642 164 100.5C164 96.3579 165.567 93 167.5 93ZM99.541 51C79.5726 51 62.3111 62.4213 54.1016 79H144.979C136.77 62.4215 119.509 51.0002 99.541 51Z" fill="#0B3896"/>
</svg>
